# xmcd
#
# Track frame offsets: 
#        150
#        37285
#        48322
#        68545
#        84354
#        98132
#        110495
#        123561
#        136098
#        152368
#        171792
#        188383
#        200217
#        219288
#
# Disc length: 3080 seconds
#
# Revision: 0
# Processed by: cddbd v1.5.2PL0 Copyright (c) Steve Scherf et al.
# Submitted via: ExactAudioCopyFreeDBPlugin 1.0
#
DISCID=b70c060e
DTITLE=Mexico Disco Uno - Mexico Disco Uno
DYEAR=2010
DGENRE=
TTITLE0=Huapango
TTITLE1=Puerto Vallarta
TTITLE2=A La Orilla De Un Palmar
TTITLE3=La Sandunga
TTITLE4=La Casita
TTITLE5=Jarabe Tapatio
TTITLE6=Mujer Ladina
TTITLE7=Cancion Mixteca
TTITLE8=Blancas Mariposas
TTITLE9=Club Verde
TTITLE10=El Jinete
TTITLE11=El Rascapetate - La Adelita
TTITLE12=Cuando Vuelva A Tu Lado
TTITLE13=Vals Lirico
EXTD=
EXTT0=
EXTT1=
EXTT2=
EXTT3=
EXTT4=
EXTT5=
EXTT6=
EXTT7=
EXTT8=
EXTT9=
EXTT10=
EXTT11=
EXTT12=
EXTT13=
PLAYORDER=
